# xmcd CD database file
#
# Track frame offsets:
#       150
#       18447
#       36955
#       53112
#       71357
#       87445
#       101802
#       118092
#       137335
#       149627
#
# Disc length: 2240 seconds
#
# Revision: 0
# Processed by: cddbd v1.5.2PL0 Copyright (c) Steve Scherf et al.
# Submitted via: jack 3.1.1
#
DISCID=8d08be0a
DTITLE=Various Artist - The Bowled And The Beautiful
DYEAR=1900
DGENRE=Comedy
TTITLE0=Hansie - Makoeloe Outswingers
TTITLE1=Hansie's Boys - Bill Flynn
TTITLE2=Affirmative Boula - Leon Schuster
TTITLE3=Shouting For The Flower - Stand By Me - Makoeloe Outswingers
TTITLE4=Moker Nog Een - Die Hervormde Partytjie Op Horings
TTITLE5=Howzat - Amor
TTITLE6=Main "Ous" In The Green 'n Gold - Makoeloe Outswingers
TTITLE7=We Want A Wicket, Hansie! - Leon Schuster
TTITLE8=Jonty - The Good Hope Entertainers
TTITLE9=We're Gonna Hit You All Over - Die Hervormde Partytjie Op Horings
EXTD=
EXTT0=
EXTT1=
EXTT2=
EXTT3=
EXTT4=
EXTT5=
EXTT6=
EXTT7=
EXTT8=
EXTT9=
PLAYORDER=
